<svg xmlns="http://www.w3.org/2000/svg" xmlns:xlink="http://www.w3.org/1999/xlink" width="275" zoomAndPan="magnify" viewBox="0 0 206.25 60" height="80" preserveAspectRatio="xMidYMid meet" version="1.2"><defs><clipPath id="1987a6cd32"><path d="M 2.539062 19 L 24 19 L 24 30 L 2.539062 30 Z M 2.539062 19 "/></clipPath><clipPath id="b68c823666"><path d="M 2.539062 32 L 24 32 L 24 43 L 2.539062 43 Z M 2.539062 32 "/></clipPath><clipPath id="76eec8ee0f"><rect x="0" width="142" y="0" height="52"/></clipPath></defs><g id="cb0a9fd8fb"><path style=" stroke:none;fill-rule:nonzero;fill:#f28482;fill-opacity:1;" d="M 15.589844 9.601562 L 26.519531 18.9375 C 27.167969 19.492188 27.542969 20.304688 27.542969 21.164062 L 27.542969 28.199219 L 16.613281 18.863281 C 15.964844 18.308594 15.589844 17.492188 15.589844 16.636719 Z M 15.589844 9.601562 "/><path style=" stroke:none;fill-rule:nonzero;fill:#f28482;fill-opacity:1;" d="M 15.589844 51.902344 L 26.519531 42.566406 C 27.167969 42.011719 27.542969 41.199219 27.542969 40.34375 L 27.542969 33.304688 L 16.613281 42.640625 C 15.964844 43.195312 15.589844 44.011719 15.589844 44.867188 Z M 15.589844 51.902344 "/><g clip-rule="nonzero" clip-path="url(#1987a6cd32)"><path style=" stroke:none;fill-rule:nonzero;fill:#f28482;fill-opacity:1;" d="M 2.546875 19.445312 L 13.328125 28.605469 C 13.851562 29.050781 14.511719 29.292969 15.199219 29.292969 L 23.890625 29.292969 L 13.136719 20.136719 C 12.613281 19.691406 11.953125 19.445312 11.265625 19.445312 Z M 2.546875 19.445312 "/></g><g clip-rule="nonzero" clip-path="url(#b68c823666)"><path style=" stroke:none;fill-rule:nonzero;fill:#f28482;fill-opacity:1;" d="M 2.546875 42.058594 L 13.261719 32.902344 C 13.785156 32.457031 14.449219 32.210938 15.136719 32.210938 L 23.917969 32.210938 L 13.136719 41.367188 C 12.613281 41.8125 11.953125 42.058594 11.269531 42.058594 Z M 2.546875 42.058594 "/></g><path style=" stroke:none;fill-rule:nonzero;fill:#f28482;fill-opacity:1;" d="M 42.390625 9.601562 L 31.464844 18.9375 C 30.8125 19.492188 30.441406 20.304688 30.441406 21.164062 L 30.441406 28.199219 L 41.371094 18.863281 C 42.019531 18.308594 42.390625 17.492188 42.390625 16.636719 Z M 42.390625 9.601562 "/><path style=" stroke:none;fill-rule:nonzero;fill:#f28482;fill-opacity:1;" d="M 42.390625 51.902344 L 31.464844 42.566406 C 30.8125 42.011719 30.441406 41.199219 30.441406 40.34375 L 30.441406 33.304688 L 41.371094 42.640625 C 42.019531 43.195312 42.390625 44.011719 42.390625 44.867188 Z M 42.390625 51.902344 "/><path style=" stroke:none;fill-rule:nonzero;fill:#f28482;fill-opacity:1;" d="M 55.429688 19.445312 L 44.648438 28.605469 C 44.128906 29.050781 43.464844 29.292969 42.78125 29.292969 L 34.085938 29.292969 L 44.84375 20.136719 C 45.363281 19.691406 46.027344 19.445312 46.710938 19.445312 Z M 55.429688 19.445312 "/><path style=" stroke:none;fill-rule:nonzero;fill:#f28482;fill-opacity:1;" d="M 55.425781 42.058594 L 44.710938 32.902344 C 44.1875 32.457031 43.523438 32.210938 42.839844 32.210938 L 34.058594 32.210938 L 44.839844 41.367188 C 45.363281 41.8125 46.023438 42.058594 46.707031 42.058594 Z M 55.425781 42.058594 "/><g transform="matrix(1,0,0,1,63,4)"><g clip-path="url(#76eec8ee0f)"><g style="fill:#f28482;fill-opacity:1;"><g transform="translate(1.675152, 40.423127)"><path style="stroke:none" d="M 23 -6.34375 L 9.265625 -6.34375 L 6.640625 0 L -0.375 0 L 12.8125 -29.59375 L 19.578125 -29.59375 L 32.8125 0 L 25.625 0 Z M 20.84375 -11.546875 L 16.15625 -22.875 L 11.453125 -11.546875 Z M 20.84375 -11.546875 "/></g></g><g style="fill:#f28482;fill-opacity:1;"><g transform="translate(34.354339, 40.423127)"><path style="stroke:none" d="M 3.046875 -22.75 L 9.640625 -22.75 L 9.640625 0 L 3.046875 0 Z M 6.34375 -25.921875 C 5.132812 -25.921875 4.148438 -26.269531 3.390625 -26.96875 C 2.628906 -27.675781 2.25 -28.550781 2.25 -29.59375 C 2.25 -30.632812 2.628906 -31.507812 3.390625 -32.21875 C 4.148438 -32.925781 5.132812 -33.28125 6.34375 -33.28125 C 7.5625 -33.28125 8.550781 -32.941406 9.3125 -32.265625 C 10.070312 -31.585938 10.453125 -30.738281 10.453125 -29.71875 C 10.453125 -28.625 10.070312 -27.71875 9.3125 -27 C 8.550781 -26.28125 7.5625 -25.921875 6.34375 -25.921875 Z M 6.34375 -25.921875 "/></g></g><g style="fill:#f28482;fill-opacity:1;"><g transform="translate(47.37531, 40.423127)"><path style="stroke:none" d="M 30.65625 -29.59375 L 30.65625 0 L 23.796875 0 L 23.796875 -12.140625 L 10.359375 -12.140625 L 10.359375 0 L 3.515625 0 L 3.515625 -29.59375 L 10.359375 -29.59375 L 10.359375 -17.921875 L 23.796875 -17.921875 L 23.796875 -29.59375 Z M 30.65625 -29.59375 "/></g></g><g style="fill:#f28482;fill-opacity:1;"><g transform="translate(81.830078, 40.423127)"><path style="stroke:none" d="M 25.953125 -22.75 L 25.953125 0 L 19.703125 0 L 19.703125 -2.703125 C 18.828125 -1.710938 17.78125 -0.957031 16.5625 -0.4375 C 15.351562 0.0820312 14.046875 0.34375 12.640625 0.34375 C 9.648438 0.34375 7.28125 -0.515625 5.53125 -2.234375 C 3.789062 -3.953125 2.921875 -6.503906 2.921875 -9.890625 L 2.921875 -22.75 L 9.515625 -22.75 L 9.515625 -10.859375 C 9.515625 -7.203125 11.050781 -5.375 14.125 -5.375 C 15.695312 -5.375 16.960938 -5.882812 17.921875 -6.90625 C 18.878906 -7.9375 19.359375 -9.46875 19.359375 -11.5 L 19.359375 -22.75 Z M 25.953125 -22.75 "/></g></g><g style="fill:#f28482;fill-opacity:1;"><g transform="translate(111.16948, 40.423127)"><path style="stroke:none" d="M 16.484375 -23.078125 C 18.597656 -23.078125 20.519531 -22.59375 22.25 -21.625 C 23.988281 -20.65625 25.351562 -19.289062 26.34375 -17.53125 C 27.332031 -15.769531 27.828125 -13.71875 27.828125 -11.375 C 27.828125 -9.03125 27.332031 -6.976562 26.34375 -5.21875 C 25.351562 -3.457031 23.988281 -2.085938 22.25 -1.109375 C 20.519531 -0.140625 18.597656 0.34375 16.484375 0.34375 C 13.359375 0.34375 10.976562 -0.644531 9.34375 -2.625 L 9.34375 0 L 3.046875 0 L 3.046875 -31.375 L 9.640625 -31.375 L 9.640625 -20.34375 C 11.304688 -22.164062 13.585938 -23.078125 16.484375 -23.078125 Z M 15.34375 -5.078125 C 17.039062 -5.078125 18.429688 -5.644531 19.515625 -6.78125 C 20.597656 -7.925781 21.140625 -9.457031 21.140625 -11.375 C 21.140625 -13.289062 20.597656 -14.816406 19.515625 -15.953125 C 18.429688 -17.097656 17.039062 -17.671875 15.34375 -17.671875 C 13.65625 -17.671875 12.269531 -17.097656 11.1875 -15.953125 C 10.101562 -14.816406 9.5625 -13.289062 9.5625 -11.375 C 9.5625 -9.457031 10.101562 -7.925781 11.1875 -6.78125 C 12.269531 -5.644531 13.65625 -5.078125 15.34375 -5.078125 Z M 15.34375 -5.078125 "/></g></g></g></g></g></svg>