<svg xmlns="http://www.w3.org/2000/svg" xmlns:xlink="http://www.w3.org/1999/xlink" width="74" zoomAndPan="magnify" viewBox="0 0 55.5 44.999999" height="60" preserveAspectRatio="xMidYMid meet" version="1.2"><defs><clipPath id="a8d16993d9"><path d="M 13 25 L 26 25 L 26 44.796875 L 13 44.796875 Z M 13 25 "/></clipPath><clipPath id="7fe31785f1"><path d="M 28 25 L 41 25 L 41 44.796875 L 28 44.796875 Z M 28 25 "/></clipPath></defs><g id="a6e1d8df48"><path style=" stroke:none;fill-rule:nonzero;fill:#f28482;fill-opacity:1;" d="M 13.132812 1.855469 L 24.136719 11.253906 C 24.792969 11.8125 25.167969 12.632812 25.167969 13.496094 L 25.167969 20.582031 L 14.164062 11.179688 C 13.511719 10.621094 13.132812 9.800781 13.132812 8.9375 Z M 13.132812 1.855469 "/><g clip-rule="nonzero" clip-path="url(#a8d16993d9)"><path style=" stroke:none;fill-rule:nonzero;fill:#f28482;fill-opacity:1;" d="M 13.132812 44.445312 L 24.136719 35.046875 C 24.792969 34.488281 25.167969 33.667969 25.167969 32.804688 L 25.167969 25.71875 L 14.164062 35.121094 C 13.511719 35.679688 13.132812 36.5 13.132812 37.363281 Z M 13.132812 44.445312 "/></g><path style=" stroke:none;fill-rule:nonzero;fill:#f28482;fill-opacity:1;" d="M 0 11.765625 L 10.855469 20.988281 C 11.382812 21.4375 12.046875 21.679688 12.738281 21.679688 L 21.492188 21.679688 L 10.664062 12.460938 C 10.136719 12.011719 9.46875 11.765625 8.78125 11.765625 Z M 0 11.765625 "/><path style=" stroke:none;fill-rule:nonzero;fill:#f28482;fill-opacity:1;" d="M 0 34.53125 L 10.789062 25.316406 C 11.316406 24.867188 11.984375 24.617188 12.675781 24.617188 L 21.515625 24.617188 L 10.664062 33.839844 C 10.136719 34.285156 9.46875 34.53125 8.78125 34.53125 Z M 0 34.53125 "/><path style=" stroke:none;fill-rule:nonzero;fill:#f28482;fill-opacity:1;" d="M 40.117188 1.855469 L 29.113281 11.253906 C 28.460938 11.8125 28.082031 12.632812 28.082031 13.496094 L 28.082031 20.582031 L 39.089844 11.179688 C 39.742188 10.621094 40.117188 9.800781 40.117188 8.9375 Z M 40.117188 1.855469 "/><g clip-rule="nonzero" clip-path="url(#7fe31785f1)"><path style=" stroke:none;fill-rule:nonzero;fill:#f28482;fill-opacity:1;" d="M 40.117188 44.445312 L 29.113281 35.046875 C 28.460938 34.488281 28.082031 33.667969 28.082031 32.804688 L 28.082031 25.71875 L 39.089844 35.121094 C 39.742188 35.679688 40.117188 36.5 40.117188 37.363281 Z M 40.117188 44.445312 "/></g><path style=" stroke:none;fill-rule:nonzero;fill:#f28482;fill-opacity:1;" d="M 53.246094 11.765625 L 42.390625 20.988281 C 41.863281 21.4375 41.199219 21.679688 40.511719 21.679688 L 31.757812 21.679688 L 42.585938 12.460938 C 43.109375 12.011719 43.777344 11.765625 44.46875 11.765625 Z M 53.246094 11.765625 "/><path style=" stroke:none;fill-rule:nonzero;fill:#f28482;fill-opacity:1;" d="M 53.242188 34.53125 L 42.453125 25.316406 C 41.925781 24.867188 41.257812 24.617188 40.566406 24.617188 L 31.726562 24.617188 L 42.582031 33.839844 C 43.105469 34.285156 43.773438 34.53125 44.460938 34.53125 Z M 53.242188 34.53125 "/></g></svg>